<svg xmlns="http://www.w3.org/2000/svg" viewBox="0 0 512 512">
  <rect width="512" height="512" fill="#10b981" rx="64"/>
  <path fill="#ffffff" d="M256 96c-88.4 0-160 71.6-160 160s71.6 160 160 160 160-71.6 160-160S344.4 96 256 96zm0 288c-70.7 0-128-57.3-128-128s57.3-128 128-128 128 57.3 128 128-57.3 128-128 128z"/>
  <path fill="#ffffff" d="M256 192c-35.3 0-64 28.7-64 64s28.7 64 64 64 64-28.7 64-64-28.7-64-64-64zm0 96c-17.6 0-32-14.4-32-32s14.4-32 32-32 32 14.4 32 32-14.4 32-32 32z"/>
  <path fill="#ffffff" d="M192 192h-32v32h32v-32zm96 0h-32v32h32v-32zm64 64h-32v32h32v-32zm-96 64h-32v32h32v-32zm-64-64h-32v32h32v-32z"/>
</svg>
